<svg width="165" height="34" viewBox="0 0 165 34" fill="none" xmlns="http://www.w3.org/2000/svg">
<path d="M2.56628 29.0001V11.8905C2.56628 8.99101 4.91679 6.6405 7.81629 6.6405H18.5732C21.4729 6.6405 23.8236 8.99117 23.8236 11.8909V19.291C23.8236 22.1907 21.4729 24.5414 18.5732 24.5414H8.02498L2.56628 29.0001Z" fill="#5B58E6" stroke="#5B58E6" stroke-width="4"/>
<path d="M37.3853 24V6.25128H44.3878C45.7339 6.25128 46.8808 6.50838 47.8283 7.02258C48.7758 7.53101 49.498 8.23876 49.9949 9.14584C50.4975 10.0471 50.7489 11.0871 50.7489 12.2657C50.7489 13.4444 50.4947 14.4843 49.9862 15.3856C49.4778 16.2869 48.7412 16.9889 47.7763 17.4916C46.8172 17.9942 45.6559 18.2455 44.2924 18.2455H39.8292V15.2383H43.6858C44.408 15.2383 45.0031 15.1141 45.471 14.8656C45.9448 14.6114 46.2972 14.2619 46.5283 13.817C46.7652 13.3664 46.8837 12.8493 46.8837 12.2657C46.8837 11.6764 46.7652 11.1622 46.5283 10.7231C46.2972 10.2782 45.9448 9.93448 45.471 9.69182C44.9973 9.44339 44.3964 9.31917 43.6684 9.31917H41.1379V24H37.3853ZM53.1863 24V6.25128H56.9388V20.9061H64.5479V24H53.1863ZM67.033 24V6.25128H78.9926V9.34517H70.7855V13.5744H78.3773V16.6683H70.7855V20.9061H79.0272V24H67.033ZM85.4945 6.25128L89.0737 12.3004H89.2124L92.8089 6.25128H97.0468L91.6303 15.1256L97.1681 24H92.8523L89.2124 17.9422H89.0737L85.4338 24H81.1353L86.6905 15.1256L81.2393 6.25128H85.4945ZM114.247 12.4651H110.451C110.382 11.974 110.241 11.5378 110.027 11.1564C109.813 10.7693 109.539 10.44 109.204 10.1685C108.868 9.89693 108.481 9.68894 108.042 9.5445C107.609 9.40006 107.138 9.32784 106.63 9.32784C105.711 9.32784 104.911 9.55605 104.229 10.0125C103.547 10.4631 103.019 11.1218 102.643 11.9884C102.268 12.8493 102.08 13.895 102.08 15.1256C102.08 16.3909 102.268 17.454 102.643 18.3149C103.024 19.1757 103.556 19.8257 104.238 20.2648C104.919 20.7039 105.708 20.9234 106.604 20.9234C107.106 20.9234 107.571 20.857 107.999 20.7241C108.432 20.5912 108.816 20.3977 109.152 20.1435C109.487 19.8835 109.764 19.5686 109.983 19.1988C110.209 18.8291 110.365 18.4073 110.451 17.9335L114.247 17.9509C114.149 18.7655 113.904 19.5513 113.511 20.3081C113.124 21.0592 112.601 21.7323 111.942 22.3274C111.289 22.9167 110.509 23.3847 109.602 23.7313C108.701 24.0722 107.681 24.2427 106.543 24.2427C104.96 24.2427 103.544 23.8844 102.296 23.168C101.054 22.4516 100.072 21.4145 99.3499 20.0568C98.6334 18.6991 98.2752 17.0553 98.2752 15.1256C98.2752 13.1901 98.6392 11.5435 99.3672 10.1858C100.095 8.82808 101.083 7.79389 102.331 7.08325C103.579 6.36683 104.983 6.00862 106.543 6.00862C107.571 6.00862 108.525 6.15306 109.403 6.44194C110.287 6.73081 111.07 7.15258 111.751 7.70722C112.433 8.2561 112.988 8.92918 113.415 9.72649C113.849 10.5238 114.126 11.4367 114.247 12.4651ZM119.664 24H115.643L121.77 6.25128H126.606L132.724 24H128.703L124.257 10.3071H124.118L119.664 24ZM119.413 17.0236H128.911V19.9528H119.413V17.0236ZM134.86 24V6.25128H138.613V20.9061H146.222V24H134.86ZM163.676 12.4651H159.88C159.811 11.974 159.669 11.5378 159.455 11.1564C159.242 10.7693 158.967 10.44 158.632 10.1685C158.297 9.89693 157.91 9.68894 157.471 9.5445C157.038 9.40006 156.567 9.32784 156.058 9.32784C155.14 9.32784 154.339 9.55605 153.658 10.0125C152.976 10.4631 152.447 11.1218 152.072 11.9884C151.696 12.8493 151.508 13.895 151.508 15.1256C151.508 16.3909 151.696 17.454 152.072 18.3149C152.453 19.1757 152.985 19.8257 153.666 20.2648C154.348 20.7039 155.137 20.9234 156.032 20.9234C156.535 20.9234 157 20.857 157.428 20.7241C157.861 20.5912 158.245 20.3977 158.58 20.1435C158.915 19.8835 159.193 19.5686 159.412 19.1988C159.637 18.8291 159.793 18.4073 159.88 17.9335L163.676 17.9509C163.578 18.7655 163.332 19.5513 162.939 20.3081C162.552 21.0592 162.029 21.7323 161.371 22.3274C160.718 22.9167 159.938 23.3847 159.031 23.7313C158.13 24.0722 157.11 24.2427 155.972 24.2427C154.389 24.2427 152.973 23.8844 151.725 23.168C150.483 22.4516 149.501 21.4145 148.779 20.0568C148.062 18.6991 147.704 17.0553 147.704 15.1256C147.704 13.1901 148.068 11.5435 148.796 10.1858C149.524 8.82808 150.512 7.79389 151.76 7.08325C153.008 6.36683 154.412 6.00862 155.972 6.00862C157 6.00862 157.953 6.15306 158.831 6.44194C159.715 6.73081 160.498 7.15258 161.18 7.70722C161.862 8.2561 162.416 8.92918 162.844 9.72649C163.277 10.5238 163.555 11.4367 163.676 12.4651Z" fill="#111827"/>
</svg>
